<svg xmlns="http://www.w3.org/2000/svg" viewBox="0 0 512 512">
  <defs><linearGradient id="g" x1="0" y1="0" x2="1" y2="1"><stop offset="0" stop-color="#2563eb"/><stop offset="1" stop-color="#7c3aed"/></linearGradient></defs>
  <rect width="512" height="512" rx="112" fill="url(#g)"/>
  <circle cx="384" cy="128" r="48" fill="rgba(255,255,255,.18)"/>
  <path d="M130 178h252a28 28 0 0 1 28 28v150a28 28 0 0 1-28 28H130a28 28 0 0 1-28-28V206a28 28 0 0 1 28-28z" fill="white" opacity=".96"/>
  <path d="M150 230h160M150 276h212M150 322h132" stroke="#2563eb" stroke-width="24" stroke-linecap="round"/>
  <path d="M352 292l36 36 64-76" fill="none" stroke="#22c55e" stroke-width="28" stroke-linecap="round" stroke-linejoin="round"/>
  <path d="M176 132l38 38 86-86" fill="none" stroke="white" stroke-width="26" stroke-linecap="round" stroke-linejoin="round" opacity=".95"/>
</svg>